<?xml version="1.0" encoding="utf-8"?>
<!-- Generator: Adobe Illustrator 21.0.0, SVG Export Plug-In . SVG Version: 6.00 Build 0)  -->
<svg version="1.1" id="Слой_1" xmlns="http://www.w3.org/2000/svg" xmlns:xlink="http://www.w3.org/1999/xlink" x="0px" y="0px"
	 viewBox="0 0 284.2 66.4" style="enable-background:new 0 0 284.2 66.4;" xml:space="preserve">
<style type="text/css">
	.st0{fill:#EF4319;}
	.st1{fill:#FFFFFF;}
	.st2{fill:none;stroke:#000000;stroke-width:2;stroke-miterlimit:10;}
	.st3{fill:#00E2B5;}
</style>
<g>
	<g>
		<path class="st0" d="M7,45.1c-3.8,0-7,3.1-7,7c0,3.7,6.5,11,6.7,11.3c0.1,0.2,0.4,0.2,0.5,0l0,0c0.3-0.3,6.7-7.6,6.7-11.3
			C14,48.2,10.9,45.1,7,45.1z M7,62.6c-1.2-1.4-6.2-7.5-6.2-10.5c0-3.5,2.8-6.3,6.2-6.3s6.3,2.8,6.3,6.3C13.3,55.1,8.2,61.2,7,62.6z
			"/>
		<path class="st0" d="M13.3,52.1c0,3.1-5,9.1-6.3,10.5c-1.2-1.4-6.2-7.5-6.2-10.5c0-3.5,2.8-6.3,6.2-6.3S13.3,48.6,13.3,52.1z"/>
	</g>
	<g>
		<g>
			<path class="st1" d="M7,48.7c-2.1,0-3.8,1.7-3.8,3.8c0,2.1,1.7,3.8,3.8,3.8c2.1,0,3.8-1.7,3.8-3.8C10.8,50.4,9.1,48.7,7,48.7z
				 M7,55.5c-1.7,0-3.1-1.4-3.1-3.1c0-1.7,1.4-3.1,3.1-3.1s3.1,1.4,3.1,3.1C10,54.2,8.7,55.5,7,55.5z"/>
			<circle class="st1" cx="7" cy="52.5" r="3.1"/>
		</g>
	</g>
</g>
<line class="st2" x1="6.9" y1="65.4" x2="14.6" y2="65.4"/>
<line class="st2" x1="22.3" y1="65.4" x2="30" y2="65.4"/>
<line class="st2" x1="37.8" y1="65.4" x2="45.5" y2="65.4"/>
<line class="st2" x1="53.2" y1="65.4" x2="60.9" y2="65.4"/>
<path class="st2" d="M161.2,65.4c4.1,0,7.4-3.3,7.4-7.4"/>
<path class="st2" d="M168.6,50.2c0-4.1-3.3-7.4-7.4-7.4"/>
<line class="st2" x1="68.6" y1="65.4" x2="76.4" y2="65.4"/>
<line class="st2" x1="207.6" y1="20.2" x2="215.3" y2="20.2"/>
<line class="st2" x1="223" y1="20.2" x2="230.7" y2="20.2"/>
<path class="st2" d="M122.7,42.8c-4.1,0-7.4-3.3-7.4-7.4"/>
<path class="st2" d="M115.2,27.7c0-4.1,3.3-7.4,7.4-7.4"/>
<line class="st2" x1="199.9" y1="20.2" x2="192.2" y2="20.2"/>
<line class="st2" x1="184.4" y1="20.2" x2="176.7" y2="20.2"/>
<line class="st2" x1="169" y1="20.2" x2="161.3" y2="20.2"/>
<line class="st2" x1="153.6" y1="20.2" x2="145.8" y2="20.2"/>
<line class="st2" x1="130.4" y1="20.2" x2="138.1" y2="20.2"/>
<g>
	<g>
		<path class="st1" d="M277.3,0c-3.8,0-7,3.1-7,7c0,3.7,6.5,11,6.7,11.3c0.1,0.2,0.4,0.2,0.5,0l0,0c0.3-0.3,6.7-7.6,6.7-11.3
			C284.3,3.1,281.2,0,277.3,0z M277.3,17.5C276,16.1,271,10.1,271,7c0-3.5,2.8-6.3,6.2-6.3s6.3,2.8,6.3,6.3
			C283.6,10,278.5,16.1,277.3,17.5z"/>
		<path class="st1" d="M283.6,7c0,3.1-5,9.1-6.3,10.5C276,16,271,10,271,7c0-3.5,2.8-6.3,6.2-6.3C280.7,0.7,283.6,3.5,283.6,7z"/>
	</g>
	<g>
		<g>
			<path class="st3" d="M277.3,3.6c-2.1,0-3.8,1.7-3.8,3.8s1.7,3.8,3.8,3.8c2.1,0,3.8-1.7,3.8-3.8S279.4,3.6,277.3,3.6z M277.3,10.5
				c-1.7,0-3.1-1.4-3.1-3.1s1.4-3.1,3.1-3.1s3.1,1.4,3.1,3.1S279,10.5,277.3,10.5z"/>
			<circle class="st3" cx="277.3" cy="7.4" r="3.1"/>
		</g>
	</g>
</g>
<line class="st2" x1="153.5" y1="65.4" x2="145.8" y2="65.4"/>
<line class="st2" x1="138.1" y1="65.4" x2="130.4" y2="65.4"/>
<line class="st2" x1="122.7" y1="65.4" x2="114.9" y2="65.4"/>
<line class="st2" x1="107.2" y1="65.4" x2="99.5" y2="65.4"/>
<line class="st2" x1="84.1" y1="65.4" x2="91.7" y2="65.4"/>
<line class="st2" x1="153.5" y1="42.8" x2="145.8" y2="42.8"/>
<line class="st2" x1="138.1" y1="42.8" x2="130.3" y2="42.8"/>
<line class="st2" x1="277.2" y1="20.2" x2="269.5" y2="20.2"/>
<line class="st2" x1="261.8" y1="20.2" x2="254.1" y2="20.2"/>
<line class="st2" x1="238.6" y1="20.2" x2="246.3" y2="20.2"/>
</svg>
