<?xml version="1.0" encoding="utf-8"?>
<!-- Generator: Adobe Illustrator 21.0.0, SVG Export Plug-In . SVG Version: 6.00 Build 0)  -->
<svg version="1.1" id="Слой_1" xmlns="http://www.w3.org/2000/svg" xmlns:xlink="http://www.w3.org/1999/xlink" x="0px" y="0px"
	 viewBox="0 0 232.2 171.6" style="enable-background:new 0 0 232.2 171.6;" xml:space="preserve">
<style type="text/css">
	.st0{fill:#EF4319;}
	.st1{fill:#FFFFFF;}
	.st2{fill:none;stroke:#000000;stroke-width:2;stroke-miterlimit:10;}
	.st3{fill:#00E2B5;}
</style>
<g>
	<g>
		<path class="st0" d="M12.5,134.7c-6.9,0-12.5,5.6-12.5,12.5c0,6.7,11.6,19.8,12,20.3c0.2,0.3,0.7,0.3,0.9,0l0,0
			c0.5-0.6,12-13.6,12-20.3C25.1,140.3,19.5,134.7,12.5,134.7z M12.5,166.1c-2.2-2.6-11.2-13.4-11.2-18.9c0-6.2,5-11.3,11.2-11.3
			s11.3,5,11.3,11.3C23.8,152.7,14.7,163.6,12.5,166.1z"/>
		<path class="st0" d="M23.8,147.2c0,5.5-9,16.4-11.3,18.9c-2.2-2.6-11.2-13.4-11.2-18.9c0-6.2,5-11.3,11.2-11.3
			S23.8,141,23.8,147.2z"/>
	</g>
	<g>
		<g>
			<path class="st1" d="M12.5,141.1c-3.8,0-6.8,3.1-6.8,6.8c0,3.8,3.1,6.8,6.8,6.8c3.8,0,6.8-3,6.8-6.8
				C19.3,144.2,16.3,141.1,12.5,141.1z M12.5,153.4c-3,0-5.5-2.5-5.5-5.5s2.5-5.5,5.5-5.5s5.5,2.5,5.5,5.5
				C18,151,15.6,153.4,12.5,153.4z"/>
			<circle class="st1" cx="12.5" cy="147.9" r="5.5"/>
		</g>
	</g>
</g>
<g>
	<line class="st2" x1="12.3" y1="171.1" x2="26.2" y2="171.1"/>
	<line class="st2" x1="40" y1="171.1" x2="53.9" y2="171.1"/>
	<line class="st2" x1="67.8" y1="171.1" x2="81.6" y2="171.1"/>
	<line class="st2" x1="95.5" y1="171.1" x2="109.4" y2="171.1"/>
	<path class="st2" d="M150.6,171.1c7.4,0,13.3-6,13.3-13.3"/>
	<path class="st2" d="M163.9,117.1c0-7.4-6-13.3-13.3-13.3"/>
	<line class="st2" x1="123.2" y1="171.1" x2="137.1" y2="171.1"/>
	<line class="st2" x1="95.1" y1="103.7" x2="109" y2="103.7"/>
	<line class="st2" x1="122.9" y1="103.7" x2="136.7" y2="103.7"/>
	<line class="st2" x1="163.9" y1="130.5" x2="163.9" y2="144.4"/>
	<path class="st2" d="M81,103.7c-7.4,0-13.3-6-13.3-13.3"/>
	<path class="st2" d="M67.7,49.7c0-7.4,6-13.3,13.3-13.3"/>
	<line class="st2" x1="67.7" y1="63.1" x2="67.7" y2="77"/>
	<line class="st2" x1="219.6" y1="36.3" x2="205.8" y2="36.3"/>
	<line class="st2" x1="191.9" y1="36.3" x2="178" y2="36.3"/>
	<line class="st2" x1="164.2" y1="36.3" x2="150.3" y2="36.3"/>
	<line class="st2" x1="136.5" y1="36.3" x2="122.6" y2="36.3"/>
	<line class="st2" x1="94.9" y1="36.3" x2="108.7" y2="36.3"/>
</g>
<g>
	<g>
		<path class="st1" d="M219.6,0c-6.9,0-12.5,5.6-12.5,12.5c0,6.7,11.6,19.8,12,20.3c0.2,0.3,0.7,0.3,0.9,0l0,0
			c0.5-0.6,12-13.6,12-20.3C232.2,5.6,226.6,0,219.6,0z M219.6,31.5c-2.2-2.6-11.2-13.4-11.2-18.9c0-6.2,5-11.3,11.2-11.3
			s11.3,5,11.3,11.3C230.9,18,221.8,28.9,219.6,31.5z"/>
		<path class="st1" d="M230.9,12.5c0,5.5-9,16.4-11.3,18.9c-2.2-2.6-11.2-13.4-11.2-18.9c0-6.2,5-11.3,11.2-11.3
			C225.8,1.3,230.9,6.3,230.9,12.5z"/>
	</g>
	<g>
		<g>
			<path class="st3" d="M219.6,6.5c-3.8,0-6.8,3.1-6.8,6.8s3.1,6.8,6.8,6.8c3.8,0,6.8-3,6.8-6.8C226.4,9.5,223.4,6.5,219.6,6.5z
				 M219.6,18.8c-3,0-5.5-2.5-5.5-5.5s2.5-5.5,5.5-5.5s5.5,2.5,5.5,5.5S222.7,18.8,219.6,18.8z"/>
			<circle class="st3" cx="219.6" cy="13.3" r="5.5"/>
		</g>
	</g>
</g>
</svg>
