<?xml version="1.0" encoding="utf-8"?>
<!-- Generator: Adobe Illustrator 21.0.0, SVG Export Plug-In . SVG Version: 6.00 Build 0)  -->
<svg version="1.1" id="Слой_1" xmlns="http://www.w3.org/2000/svg" xmlns:xlink="http://www.w3.org/1999/xlink" x="0px" y="0px"
	 viewBox="0 0 735.8 410" style="enable-background:new 0 0 735.8 410;" xml:space="preserve">
<g>
	<path d="M139.3,261.8l-2.9,27.6c-0.2,2.2,0.5,4.4,2,6.1c1.5,1.7,3.6,2.6,5.9,2.6h83.4c2.2,0,4.4-0.9,5.9-2.6c1.5-1.7,2.2-3.9,2-6.1
		l-2.9-27.6h103.8c16.2,0,29.3-13.1,29.3-29.3V29.3c0-16.2-13.2-29.3-29.3-29.3H29.2C13,0-0.1,13.1-0.1,29.3v203.1
		c0,16.2,13.1,29.3,29.3,29.3L139.3,261.8L139.3,261.8z M218.8,282.3H153l2.2-20.5h61.5L218.8,282.3z M29.2,15.8h307.2
		c7.5,0,13.5,6.1,13.5,13.5v178.8H15.6V29.3C15.6,21.8,21.7,15.8,29.2,15.8z M15.6,232.4v-8.5h334.3v8.5c0,7.5-6.1,13.5-13.5,13.5
		H29.2C21.7,246,15.6,239.9,15.6,232.4z"/>
	<path d="M336.2,351c1.4-2.4,1.5-5.3,0.3-7.7l-15.6-30c-1.4-2.6-4.1-4.2-7-4.2H51.7c-2.9,0-5.6,1.6-7,4.2l-15.6,30
		c-1.3,2.4-1.2,5.4,0.3,7.7c1.4,2.4,4,3.8,6.7,3.8h293.3C332.2,354.8,334.7,353.4,336.2,351z M49.1,339l7.4-14.2h252.6l7.4,14.2
		H49.1z"/>
	<path d="M355.5,369h-12.6c-18.3,0-33.1,14.9-33.1,33.1c0,4.4,3.5,7.9,7.9,7.9h63.1c4.4,0,7.9-3.5,7.9-7.9
		C388.6,383.8,373.8,369,355.5,369z M327.5,394.2c2.9-5.6,8.7-9.5,15.4-9.5h12.6c6.7,0,12.6,3.8,15.4,9.5H327.5z"/>
	<g>
		<g>
			<g>
				<path d="M244.3,105.7L244.3,105.7c-1.1-14.3-7.1-27.5-16.6-37.5c-0.7-0.7-1.8-0.8-2.6-0.1c-0.7,0.7-0.8,1.8-0.1,2.6
					c0.8,0.9,1.6,1.7,2.3,2.6c0,0,0,0.1,0.1,0.1c5.5,6.6,9.5,14.4,11.7,22.9c-3.1-3.9-7.5-7.4-13.1-10.5c-4-2.2-8.4-4-13.1-5.5
					c-3-9.5-8.1-20-15.9-26.2c2,0.5,4.1,1.2,6.1,1.9v0c5.3,1.9,10.9,5,16,9c0.8,0.6,1.9,0.5,2.5-0.3c0.6-0.8,0.5-1.9-0.3-2.5
					c-0.4-0.3-0.9-0.7-1.1-0.9c-0.9-0.7-2.1-1.5-2.2-1.6l0,0c-6.3-4.4-13.5-7.6-21-9.4c0,0,0,0,0,0c0,0,0,0-0.1,0
					c-0.5-0.1-1.1-0.2-1.8-0.4c0,0,0,0-0.1,0l-0.1,0c-0.5-0.1-1.1-0.2-1.6-0.3c0,0,0,0,0,0l-0.2,0c-0.6-0.1-1.1-0.2-1.7-0.3l0,0
					c0,0-0.1,0-0.1,0c-0.1,0-0.1,0-0.2,0l-0.2,0c0,0,0,0-0.1,0c-0.6-0.1-1.2-0.1-1.7-0.2c0,0,0,0,0,0c0,0,0,0,0,0
					c-0.1,0-0.1,0-0.2,0c0,0-0.1,0-0.1,0c0,0,0,0,0,0l-0.1,0c-0.5,0-0.9-0.1-1.4-0.1c0,0,0,0-0.1,0c-12.7-0.9-25.7,2.1-37.2,9.3
					c-35.3,22.4-38.6,71.9-7.5,98.9c23.2,20.1,57.6,20,80.8,0C238.2,144.1,245.8,124.9,244.3,105.7z M208.7,79.1
					c-8-2.1-16.8-3.1-25.9-3.1c-9.1,0-17.9,1.1-25.9,3.1C169,43.6,196.3,43.2,208.7,79.1z M154.2,59.8L154.2,59.8
					c4.1-2.4,9.1-4.4,14.4-5.8c-7.8,6.3-13,16.7-15.9,26.2c-9.5,3-20,8.1-26.2,15.9C130.4,80.6,140.6,67.5,154.2,59.8z M151.5,84.5
					c-2.1,8-3.1,16.8-3.1,25.9c0,9.1,1.1,17.9,3.1,25.9C116.1,124.1,115.4,96.9,151.5,84.5z M126.4,124.6c2.8,3.5,6.6,6.7,11.3,9.5
					c4.4,2.6,9.4,4.8,14.9,6.5c3,9.6,8.1,19.9,15.9,26.2C148.1,161.5,131.6,145.3,126.4,124.6z M156.8,141.7
					c6.4,1.6,13.3,2.7,20.5,3c1,0,1.8-0.7,1.9-1.7c0-1-0.7-1.8-1.7-1.9c-7.9-0.4-15.3-1.6-21.9-3.5c-2.4-8.3-3.6-17.5-3.6-27.2
					c0-9.6,1.3-18.9,3.6-27.2c8.3-2.4,17.6-3.6,27.2-3.6c9.6,0,18.9,1.3,27.2,3.6c4.8,16.9,4.8,37.5,0,54.4
					c-7.4,2.1-15.6,3.3-24.2,3.6c-1,0-1.8,0.9-1.8,1.9c0,1,0.8,1.8,1.8,1.8c0,0,0,0,0.1,0c8-0.2,15.7-1.3,22.8-3.1
					C196.5,177.1,169.2,177.7,156.8,141.7z M197,166.7c7.8-6.3,12.9-16.7,15.9-26.2c5.2-1.6,9.9-3.6,14.1-6
					c5.1-2.9,9.2-6.3,12.1-9.9C233.9,145.3,217.4,161.5,197,166.7z M225.2,131.4c-3.4,1.9-7.1,3.6-11.2,5c4.2-16.3,4.2-35.5,0-51.8
					C244,94.8,250.5,116.9,225.2,131.4z"/>
			</g>
		</g>
		<g>
			<g>
				<path d="M169.8,110.4c1-0.8,1.5-2.2,1.5-3.9c0-3-1.8-4.6-5.1-4.6c-4.2,0-5.3,2.7-5.3,4.3c0,1.1,0.4,1.5,1.7,1.5
					c1.3,0,1.5-0.7,1.5-1.4c0-1,0.7-1.6,2.1-1.6c1.4,0,2,0.6,2,2.1c0,1.9-0.8,2.2-2.1,2.2c-1.6,0-1.6,2.7,0,2.7
					c1.7,0,2.5,0.7,2.5,2.2c0,1.7-0.2,3-2.5,3c-1.8,0-2.4-0.9-2.4-1.7c0-1.2-0.8-1.3-1.7-1.3c-1.1,0-1.5,0.4-1.5,1.4
					c0,2.2,1.9,4.5,5.6,4.5c3.6,0,5.7-2,5.7-5.5v-0.4C171.8,112.4,171.1,111.1,169.8,110.4z"/>
			</g>
		</g>
		<g>
			<g>
				<path d="M179.2,108.8c-1.2,0-2.2,0.3-2.9,0.9c0-2.5-0.4-4.8,2.5-4.8c1.2,0,2.4,0.5,2.4,1.7c0,0.5,0.2,1.3,1.7,1.3
					c0.4,0,1.5,0,1.5-1.4c0-2.3-1.9-4.6-5.6-4.6c-3.7,0-5.8,2-5.8,5.6v6.9c0,3.6,2,5.6,5.7,5.6c3.6,0,5.6-2,5.6-5.6V114
					C184.4,110.6,182.6,108.8,179.2,108.8z M178.8,117.3c-1.7,0-2.5-0.9-2.5-2.7V114c0-1.6,0.8-2.4,2.4-2.4c1.7,0,2.4,0.8,2.4,2.6
					C181.2,116,180.8,117.3,178.8,117.3z"/>
			</g>
		</g>
		<g>
			<g>
				<path d="M191.4,101.9c-3.6,0-5.6,2-5.6,5.6v6.9c0,3.6,2,5.6,5.6,5.6c3.6,0,5.7-2,5.7-5.6v-6.9C197.1,104,195,101.9,191.4,101.9z
					 M193.9,114.4c0,1.8-0.8,2.7-2.4,2.7c-1.6,0-2.4-0.9-2.4-2.7v-6.9c0-1.8,0.8-2.7,2.4-2.7c1.6,0,2.4,0.9,2.4,2.7V114.4z"/>
			</g>
		</g>
		<g>
			<g>
				<path d="M201.8,99.6c-1.8,0-3.2,1.4-3.2,3v0.9c0,1.6,1.5,3.1,3.2,3.1c1.7,0,3.3-1.4,3.3-3.1v-0.9
					C205,100.9,203.6,99.6,201.8,99.6z M202.4,103.5c0,0.3-0.3,0.6-0.6,0.6c-0.3,0-0.6-0.3-0.6-0.6v-0.9c0-0.3,0.2-0.6,0.6-0.6
					c0.3,0,0.6,0.3,0.6,0.6V103.5z"/>
			</g>
		</g>
	</g>
</g>
<g>
	<g>
		<path d="M593.3,101.1H423c-8.2,0-14.8,6.7-14.8,14.8v221.2c0,8.2,6.7,14.8,14.8,14.8h170.3c8.2,0,14.8-6.7,14.8-14.8V116
			C608.1,107.8,601.5,101.1,593.3,101.1z M599.7,337.1c0,3.5-2.9,6.4-6.4,6.4H423c-3.5,0-6.4-2.9-6.4-6.4V116c0-3.5,2.9-6.4,6.4-6.4
			h170.3c3.5,0,6.4,2.9,6.4,6.4V337.1z"/>
		<path d="M591.2,128.2H425.1c-1.6,0-2.8,1.3-2.8,2.8v191.1c0,1.6,1.3,2.8,2.8,2.8h166.1c1.6,0,2.8-1.3,2.8-2.8V131
			C594,129.4,592.8,128.2,591.2,128.2L591.2,128.2z M588.4,319.3H427.9V133.8h160.5V319.3z"/>
		<path d="M508.1,330.8c-1.1,0-2.2,0.5-3,1.2c-0.8,0.8-1.2,1.9-1.2,3s0.5,2.2,1.2,3c0.8,0.8,1.9,1.2,3,1.2c1.1,0,2.2-0.5,3-1.2
			c0.8-0.8,1.2-1.9,1.2-3s-0.5-2.2-1.2-3C510.3,331.2,509.3,330.8,508.1,330.8z"/>
		<path d="M508.1,122.2c0.7,0,1.5-0.3,2-0.8c0.5-0.5,0.8-1.3,0.8-2s-0.3-1.5-0.8-2c-0.5-0.5-1.3-0.8-2-0.8c-0.7,0-1.5,0.3-2,0.8
			c-0.5,0.5-0.8,1.3-0.8,2s0.3,1.5,0.8,2C506.7,121.9,507.4,122.2,508.1,122.2z"/>
	</g>
	<g>
		<g>
			<g>
				<path d="M551.4,224.6L551.4,224.6c-0.8-10.1-5-19.3-11.7-26.4c-0.5-0.5-1.3-0.5-1.8-0.1c-0.5,0.5-0.5,1.3-0.1,1.8
					c0.6,0.6,1.1,1.2,1.6,1.8c0,0,0,0,0,0.1c3.9,4.6,6.7,10.1,8.2,16.1c-2.2-2.7-5.3-5.2-9.2-7.4c-2.8-1.5-5.9-2.8-9.2-3.8
					c-2.1-6.7-5.7-14.1-11.2-18.5c1.4,0.4,2.9,0.8,4.3,1.3v0c3.7,1.4,7.7,3.5,11.2,6.4c0.5,0.4,1.3,0.3,1.8-0.2
					c0.4-0.5,0.3-1.3-0.2-1.8c-0.3-0.2-0.7-0.5-0.8-0.6c-0.7-0.5-1.5-1.1-1.6-1.1l0,0c-4.5-3.1-9.5-5.3-14.8-6.6c0,0,0,0,0,0
					c0,0,0,0-0.1,0c-0.4-0.1-0.8-0.2-1.2-0.3c0,0,0,0,0,0l-0.1,0c-0.4-0.1-0.8-0.1-1.1-0.2c0,0,0,0,0,0l-0.1,0
					c-0.4-0.1-0.8-0.1-1.2-0.2l0,0c0,0,0,0-0.1,0c0,0-0.1,0-0.1,0l-0.1,0c0,0,0,0-0.1,0c-0.4-0.1-0.8-0.1-1.2-0.1c0,0,0,0,0,0
					c0,0,0,0,0,0c0,0-0.1,0-0.1,0c0,0-0.1,0-0.1,0c0,0,0,0,0,0l-0.1,0c-0.3,0-0.7-0.1-1-0.1c0,0,0,0,0,0c-8.9-0.6-18.1,1.5-26.2,6.6
					c-24.8,15.8-27.2,50.6-5.3,69.6c16.3,14.1,40.6,14.1,56.9,0C547.1,251.6,552.5,238.1,551.4,224.6z M526.4,205.9
					c-5.6-1.4-11.8-2.2-18.2-2.2c-6.4,0-12.6,0.8-18.2,2.2C498.5,180.9,517.7,180.6,526.4,205.9z M488,192.3L488,192.3
					c2.9-1.7,6.4-3.1,10.2-4.1c-5.5,4.4-9.1,11.8-11.2,18.5c-6.7,2.1-14.1,5.7-18.5,11.2C471.3,206.9,478.5,197.7,488,192.3z
					 M486.1,209.6c-1.4,5.6-2.2,11.8-2.2,18.2c0,6.4,0.8,12.6,2.2,18.2C461.2,237.6,460.7,218.4,486.1,209.6z M468.5,237.8
					c2,2.4,4.6,4.7,8,6.7c3.1,1.8,6.6,3.4,10.5,4.5c2.1,6.7,5.7,14,11.2,18.4C483.8,263.8,472.1,252.4,468.5,237.8z M489.9,249.9
					c4.5,1.2,9.4,1.9,14.4,2.1c0.7,0,1.3-0.5,1.3-1.2s-0.5-1.3-1.2-1.3c-5.5-0.3-10.8-1.1-15.4-2.5c-1.7-5.8-2.5-12.3-2.5-19.1
					c0-6.8,0.9-13.3,2.5-19.1c5.8-1.7,12.4-2.5,19.1-2.5c6.8,0,13.3,0.9,19.1,2.5c3.4,11.9,3.4,26.4,0,38.3c-5.2,1.5-11,2.3-17,2.5
					c-0.7,0-1.3,0.6-1.2,1.3c0,0.7,0.6,1.2,1.3,1.2c0,0,0,0,0,0c5.6-0.2,11.1-0.9,16-2.2C517.8,274.8,498.6,275.3,489.9,249.9z
					 M518.2,267.5c5.5-4.4,9.1-11.7,11.2-18.4c3.6-1.1,7-2.5,10-4.2c3.6-2.1,6.5-4.4,8.5-7C544.1,252.4,532.5,263.8,518.2,267.5z
					 M538,242.6c-2.4,1.4-5,2.5-7.9,3.5c2.9-11.5,2.9-25,0-36.5C551.3,216.9,555.8,232.5,538,242.6z"/>
			</g>
		</g>
		<g>
			<g>
				<path d="M499,227.9c0.7-0.5,1.1-1.5,1.1-2.7c0-2.1-1.2-3.2-3.6-3.2c-3,0-3.7,1.9-3.7,3.1c0,0.8,0.3,1.1,1.2,1.1
					c0.9,0,1.1-0.5,1.1-1c0-0.7,0.5-1.1,1.5-1.1c1,0,1.4,0.4,1.4,1.5c0,1.3-0.5,1.6-1.5,1.6c-1.1,0-1.1,1.9,0,1.9
					c1.2,0,1.8,0.5,1.8,1.6c0,1.2-0.1,2.1-1.8,2.1c-1.3,0-1.7-0.6-1.7-1.2c0-0.8-0.6-0.9-1.2-0.9c-0.8,0-1.1,0.3-1.1,1
					c0,1.6,1.3,3.2,3.9,3.2c2.6,0,4-1.4,4-3.9v-0.3C500.4,229.3,499.9,228.4,499,227.9z"/>
			</g>
		</g>
		<g>
			<g>
				<path d="M505.7,226.8c-0.8,0-1.5,0.2-2.1,0.6c0-1.7-0.3-3.4,1.8-3.4c0.8,0,1.7,0.4,1.7,1.2c0,0.3,0.2,0.9,1.2,0.9
					c0.3,0,1.1,0,1.1-1c0-1.6-1.3-3.2-3.9-3.2c-2.6,0-4.1,1.4-4.1,4v4.8c0,2.6,1.4,4,4,4c2.6,0,4-1.4,4-4v-0.3
					C509.3,228,508,226.8,505.7,226.8z M505.3,232.7c-1.2,0-1.7-0.6-1.7-1.9v-0.4c0-1.2,0.5-1.7,1.7-1.7c1.2,0,1.7,0.6,1.7,1.8
					C507,231.8,506.8,232.7,505.3,232.7z"/>
			</g>
		</g>
		<g>
			<g>
				<path d="M514.2,221.9c-2.6,0-4,1.4-4,4v4.8c0,2.6,1.4,4,4,4c2.5,0,4-1.4,4-4v-4.8C518.2,223.4,516.8,221.9,514.2,221.9z
					 M516,230.7c0,1.3-0.6,1.9-1.7,1.9c-1.1,0-1.7-0.6-1.7-1.9v-4.8c0-1.3,0.6-1.9,1.7-1.9c1.1,0,1.7,0.6,1.7,1.9V230.7z"/>
			</g>
		</g>
		<g>
			<g>
				<path d="M521.5,220.2c-1.2,0-2.3,1-2.3,2.1v0.6c0,1.1,1.1,2.2,2.3,2.2c1.2,0,2.3-1,2.3-2.2v-0.6
					C523.8,221.2,522.8,220.2,521.5,220.2z M521.9,223c0,0.2-0.2,0.4-0.4,0.4c-0.2,0-0.4-0.2-0.4-0.4v-0.6c0-0.2,0.2-0.4,0.4-0.4
					c0.2,0,0.4,0.2,0.4,0.4V223z"/>
			</g>
		</g>
	</g>
</g>
<g>
	<g>
		<path d="M727.3,203.2h-69.3c-4.7,0-8.5,4.2-8.5,9.4v129.7c0,5.2,3.8,9.4,8.5,9.4h69.3c4.7,0,8.5-4.2,8.5-9.4V212.6
			C735.8,207.4,732,203.2,727.3,203.2z M653.7,226.8h77.8V325h-77.8V226.8z M657.9,207.9h69.3c2.3,0,4.2,2.1,4.2,4.7v11.1h-77.8
			v-11.1C653.7,210,655.6,207.9,657.9,207.9z M727.3,346.9h-69.3c-2.3,0-4.2-2.1-4.2-4.7v-14.1h77.8v14.1
			C731.5,344.8,729.6,346.9,727.3,346.9z"/>
		<path d="M692.6,330.2c-3.8,0-7,3.5-7,7.7s3.1,7.7,7,7.7c3.8,0,7-3.5,7-7.7C699.6,333.7,696.4,330.2,692.6,330.2z M692.6,342.5
			c-2.3,0-4.1-2.1-4.1-4.6c0-2.5,1.9-4.6,4.1-4.6c2.3,0,4.1,2.1,4.1,4.6C696.7,340.4,694.9,342.5,692.6,342.5z"/>
		<path d="M683,218.1h19.3c0.8,0,1.4-0.7,1.4-1.6s-0.6-1.6-1.4-1.6H683c-0.8,0-1.4,0.7-1.4,1.6S682.2,218.1,683,218.1z"/>
		<path d="M677.9,218.1c0.4,0,0.7-0.2,1-0.5c0.3-0.3,0.4-0.7,0.4-1.1s-0.2-0.8-0.4-1.1c-0.3-0.3-0.6-0.5-1-0.5c-0.4,0-0.7,0.2-1,0.5
			c-0.3,0.3-0.4,0.7-0.4,1.1s0.2,0.8,0.4,1.1C677.1,218,677.5,218.1,677.9,218.1z"/>
	</g>
	<g>
		<g>
			<g>
				<path d="M722.1,275.1L722.1,275.1c-0.5-6.9-3.4-13.2-7.9-18c-0.3-0.3-0.9-0.4-1.2,0c-0.3,0.3-0.4,0.9,0,1.2
					c0.4,0.4,0.8,0.8,1.1,1.2c0,0,0,0,0,0c2.6,3.2,4.6,6.9,5.6,11c-1.5-1.9-3.6-3.6-6.3-5c-1.9-1-4-1.9-6.3-2.6
					c-1.4-4.6-3.9-9.6-7.6-12.6c1,0.2,2,0.6,2.9,0.9v0c2.5,0.9,5.2,2.4,7.6,4.3c0.4,0.3,0.9,0.2,1.2-0.1c0.3-0.4,0.2-0.9-0.1-1.2
					c-0.2-0.2-0.4-0.4-0.5-0.4c-0.4-0.3-1-0.7-1.1-0.8l0,0c-3-2.1-6.5-3.6-10.1-4.5c0,0,0,0,0,0c0,0,0,0,0,0
					c-0.3-0.1-0.5-0.1-0.8-0.2c0,0,0,0,0,0l-0.1,0c-0.2,0-0.5-0.1-0.8-0.1c0,0,0,0,0,0l-0.1,0c-0.3,0-0.5-0.1-0.8-0.1l0,0
					c0,0,0,0,0,0c0,0-0.1,0-0.1,0l-0.1,0c0,0,0,0,0,0c-0.3,0-0.6-0.1-0.8-0.1c0,0,0,0,0,0c0,0,0,0,0,0c0,0-0.1,0-0.1,0
					c0,0,0,0-0.1,0c0,0,0,0,0,0l0,0c-0.2,0-0.5,0-0.7-0.1c0,0,0,0,0,0c-6.1-0.4-12.3,1-17.8,4.5c-16.9,10.7-18.5,34.4-3.6,47.4
					c11.1,9.6,27.6,9.6,38.7,0C719.1,293.5,722.8,284.4,722.1,275.1z M705,262.4c-3.8-1-8.1-1.5-12.4-1.5c-4.4,0-8.6,0.5-12.4,1.5
					C686,245.4,699.1,245.2,705,262.4z M678.9,253.2L678.9,253.2c2-1.1,4.4-2.1,6.9-2.8c-3.7,3-6.2,8-7.6,12.6
					c-4.6,1.4-9.6,3.9-12.6,7.6C667.5,263.1,672.4,256.9,678.9,253.2z M677.6,265c-1,3.8-1.5,8.1-1.5,12.4c0,4.4,0.5,8.6,1.5,12.4
					C660.7,284,660.3,270.9,677.6,265z M665.6,284.2c1.3,1.7,3.2,3.2,5.4,4.5c2.1,1.2,4.5,2.3,7.1,3.1c1.4,4.6,3.9,9.6,7.6,12.5
					C676,301.9,668.1,294.1,665.6,284.2z M680.2,292.4c3.1,0.8,6.4,1.3,9.8,1.4c0.5,0,0.9-0.3,0.9-0.8s-0.3-0.9-0.8-0.9
					c-3.8-0.2-7.3-0.8-10.5-1.7c-1.1-4-1.7-8.4-1.7-13c0-4.6,0.6-9.1,1.7-13c4-1.1,8.4-1.7,13-1.7c4.6,0,9.1,0.6,13,1.7
					c2.3,8.1,2.3,17.9,0,26.1c-3.5,1-7.5,1.6-11.6,1.7c-0.5,0-0.9,0.4-0.8,0.9c0,0.5,0.4,0.8,0.9,0.8c0,0,0,0,0,0
					c3.8-0.1,7.5-0.6,10.9-1.5C699.2,309.3,686.1,309.6,680.2,292.4z M699.4,304.4c3.7-3,6.2-8,7.6-12.5c2.5-0.8,4.8-1.7,6.8-2.9
					c2.4-1.4,4.4-3,5.8-4.8C717.1,294.1,709.2,301.9,699.4,304.4z M712.9,287.4c-1.6,0.9-3.4,1.7-5.4,2.4c2-7.8,2-17,0-24.8
					C721.9,269.9,725,280.5,712.9,287.4z"/>
			</g>
		</g>
		<g>
			<g>
				<path d="M686.4,277.4c0.5-0.4,0.7-1,0.7-1.9c0-1.4-0.8-2.2-2.4-2.2c-2,0-2.5,1.3-2.5,2.1c0,0.6,0.2,0.7,0.8,0.7
					c0.6,0,0.7-0.4,0.7-0.7c0-0.5,0.3-0.8,1-0.8c0.7,0,1,0.3,1,1c0,0.9-0.4,1.1-1,1.1c-0.7,0-0.8,1.3,0,1.3c0.8,0,1.2,0.3,1.2,1.1
					c0,0.8-0.1,1.4-1.2,1.4c-0.9,0-1.2-0.4-1.2-0.8c0-0.6-0.4-0.6-0.8-0.6c-0.5,0-0.7,0.2-0.7,0.7c0,1.1,0.9,2.2,2.7,2.2
					c1.7,0,2.7-1,2.7-2.6v-0.2C687.3,278.4,687,277.8,686.4,277.4z"/>
			</g>
		</g>
		<g>
			<g>
				<path d="M690.9,276.7c-0.6,0-1,0.1-1.4,0.4c0-1.2-0.2-2.3,1.2-2.3c0.6,0,1.1,0.3,1.1,0.8c0,0.2,0.1,0.6,0.8,0.6
					c0.2,0,0.7,0,0.7-0.7c0-1.1-0.9-2.2-2.7-2.2c-1.8,0-2.8,1-2.8,2.7v3.3c0,1.7,1,2.7,2.7,2.7c1.7,0,2.7-1,2.7-2.7v-0.2
					C693.4,277.5,692.5,276.7,690.9,276.7z M690.7,280.7c-0.8,0-1.2-0.4-1.2-1.3v-0.3c0-0.8,0.4-1.1,1.2-1.1c0.8,0,1.2,0.4,1.2,1.3
					C691.8,280.1,691.7,280.7,690.7,280.7z"/>
			</g>
		</g>
		<g>
			<g>
				<path d="M696.8,273.4c-1.7,0-2.7,1-2.7,2.7v3.3c0,1.7,1,2.7,2.7,2.7c1.7,0,2.7-1,2.7-2.7V276
					C699.5,274.3,698.5,273.4,696.8,273.4z M697.9,279.3c0,0.9-0.4,1.3-1.2,1.3c-0.8,0-1.2-0.4-1.2-1.3V276c0-0.9,0.4-1.3,1.2-1.3
					c0.8,0,1.2,0.4,1.2,1.3V279.3z"/>
			</g>
		</g>
		<g>
			<g>
				<path d="M701.7,272.2c-0.8,0-1.6,0.7-1.6,1.5v0.4c0,0.8,0.7,1.5,1.6,1.5c0.8,0,1.6-0.7,1.6-1.5v-0.4
					C703.3,272.9,702.6,272.2,701.7,272.2z M702,274.1c0,0.2-0.1,0.3-0.3,0.3c-0.1,0-0.3-0.1-0.3-0.3v-0.4c0-0.1,0.1-0.3,0.3-0.3
					c0.2,0,0.3,0.2,0.3,0.3V274.1z"/>
			</g>
		</g>
	</g>
</g>
</svg>
