<?xml version="1.0" encoding="iso-8859-1"?>
<!-- Generator: Adobe Illustrator 19.0.0, SVG Export Plug-In . SVG Version: 6.00 Build 0)  -->
<svg version="1.1" id="Capa_1" xmlns="http://www.w3.org/2000/svg" xmlns:xlink="http://www.w3.org/1999/xlink" x="0px" y="0px"
	 viewBox="0 0 400.25 400.25" style="enable-background:new 0 0 400.25 400.25;" xml:space="preserve">
<g>
	<g>
		<path d="M380.564,134.719c-0.005-0.023-0.01-0.046-0.015-0.069l-12.48-57.28c-0.991-4.306-5.284-6.993-9.59-6.002
			c-0.003,0.001-0.007,0.002-0.01,0.002l-12.4,2.88c-14-24-56-76.72-149.76-74.16c-105.28,3.12-122.96,88-125.84,112.8l-42.88,0.96
			c-4.418-0.05-8.04,3.491-8.09,7.909c-0.005,0.432,0.025,0.864,0.09,1.291l17.12,115.36c0.656,4.369,4.731,7.379,9.1,6.722
			c0.61-0.092,1.207-0.254,1.78-0.482l26.32-10.48c0.48,3.28,0.96,6.88,1.44,10.64c0.48,3.76,0.8,6.56,1.28,10
			c1.486,16.066,6.425,31.62,14.48,45.6c6.249,10.867,17.948,17.438,30.48,17.12c10.617-0.52,21.052-2.959,30.8-7.2
			c15.25,24.565,23.084,53.011,22.56,81.92c-0.005,4.267,3.339,7.787,7.6,8h0.4c4.267,0.005,7.787-3.339,8-7.6
			c0.645-31.36-7.681-62.252-24-89.04c14-6.56,29.52-14.96,46.8-24l19.12-10.4c3.888-2.099,5.339-6.952,3.24-10.84
			c-2.099-3.888-6.952-5.339-10.84-3.24l-19.2,10.4c-59.28,32-88,46.88-101.92,26.16c-4.357-7.235-7.441-15.163-9.12-23.44l20.08-4
			c4.418-0.795,7.355-5.022,6.56-9.44c-0.795-4.418-5.022-7.355-9.44-6.56l-19.92,3.68c-0.48-3.36-0.88-6.64-1.28-9.76
			c-0.64-5.2-1.28-10.08-2.08-14.64l58.16-23.2c3.464-1.374,5.521-4.956,4.96-8.64l-0.88-3.44l197.6-42.96
			c5.661,38.495-12.064,76.678-45.12,97.2c-2.158,1.458-3.472,3.876-3.52,6.48c0,3.68-1.2,90.48,25.84,140.72
			c2.099,3.888,6.952,5.339,10.84,3.24c3.888-2.099,5.339-6.952,3.24-10.84c-21.92-40.72-24-111.28-24-128.8
			c36.162-24.736,54.847-68.085,48-111.36l10.4-1.68C378.784,143.301,381.513,139.034,380.564,134.719z M50.868,226.01l-14.24-96.4
			l83.44-1.84l14.8,64.48L50.868,226.01z M134.308,117.85c-0.838-3.721-4.187-6.333-8-6.24l-40,0.88
			c2.56-23.28,18.56-93.68,110.08-96.24c80-2.64,118.08,39.36,132.88,62l-193.68,45.6L134.308,117.85z M148.148,176.81l-8.56-37.6
			l214.32-50.4l9.28,41.28L148.148,176.81z"/>
	</g>
</g>
<g>
</g>
<g>
</g>
<g>
</g>
<g>
</g>
<g>
</g>
<g>
</g>
<g>
</g>
<g>
</g>
<g>
</g>
<g>
</g>
<g>
</g>
<g>
</g>
<g>
</g>
<g>
</g>
<g>
</g>
</svg>
