<?xml version="1.0" encoding="utf-8"?>
<!-- Generator: Adobe Illustrator 21.0.0, SVG Export Plug-In . SVG Version: 6.00 Build 0)  -->
<svg version="1.1" id="Capa_1" xmlns="http://www.w3.org/2000/svg" xmlns:xlink="http://www.w3.org/1999/xlink" x="0px" y="0px"
	 viewBox="0 0 470.5 470.5" style="enable-background:new 0 0 470.5 470.5;" xml:space="preserve">
<style type="text/css">
	.st0{fill:#FFDB1A;}
</style>
<path d="M260.9,23.2c-1.6,0-2.4,0-4,0c-0.8,0-2.4,0-3.2,0c-2.4,0-4.8,0-7.2,0.8c-41.6,2.4-80.8,16.8-113.6,43.2
	c-29.6,7.2-55.2,27.2-70.4,55.2c-13.6,24.8-16.8,53.6-8.8,80.8c-1.6,8.8-2.4,19.2-2.4,29.6c0,22.4,4,44.8,11.2,66.4L1.7,412
	c-1.6,3.2-2.4,7.2-0.8,11.2s4,8,8,9.6l22.4,12c2.4,1.6,5.6,2.4,8,2.4c5.6,0,11.2-3.2,13.6-8l42.4-78.4c37.6,48,93.6,77.6,154.4,80.8
	c1.6,0,3.2,0,4,0s1.6,0,3.2,0s3.2,0,4,0c116,0,209.6-94.4,209.6-209.6S376.1,23.2,260.9,23.2z M247.3,37.6v68.8
	c-9.6-12-21.6-22.4-35.2-29.6c-4-1.6-7.2-4-11.2-5.6C214.5,52,230.5,40,247.3,37.6z M204.9,45.6c-6.4,5.6-12,12.8-18.4,21.6
	c-8-2.4-16.8-3.2-24.8-3.2C175.3,56,189.7,49.6,204.9,45.6z M40.9,432.8c0,0.8-1.6,0.8-3.2,0l-22.4-12c-0.8-0.8-1.6-0.8-1.6-1.6
	v-0.8l81.6-152.8c0-0.8,0.8-0.8,1.6-0.8c0.8,0,0.8,0,1.6,0.8l9.6,4.8l12.8,7.2c1.6,0.8,1.6,2.4,1.6,2.4L40.9,432.8z M65.7,239.2h6.4
	c4.8,5.6,9.6,11.2,15.2,16c-2.4,1.6-3.2,3.2-4,4l-4,8C72.1,258.4,67.3,248.8,65.7,239.2z M72.1,280l-0.8,1.6
	c-0.8-0.8-0.8-1.6-0.8-3.2C71.3,279.2,71.3,280,72.1,280z M102.5,348l18.4-33.6c11.2,5.6,23.2,9.6,36,13.6
	c10.4,40.8,28,73.6,48.8,93.6C164.1,408,128.1,383.2,102.5,348z M127.3,300.8l8-14.4c0-1.6,0.8-3.2,0.8-5.6c4,0.8,8,1.6,12,1.6
	c1.6,9.6,2.4,20,4.8,28.8C144.1,308,135.3,304.8,127.3,300.8z M247.3,428.8c-32-5.6-60-42.4-76-97.6c24,5.6,48.8,9.6,76,10.4V428.8z
	 M247.3,327.2c-28-0.8-55.2-4.8-79.2-11.2c-2.4-9.6-4.8-20.8-6.4-32c33.6-0.8,64.8-16.8,85.6-43.2V327.2z M245.7,218.4
	c-16.8,31.2-49.6,51.2-85.6,51.2c-16,0-31.2-4-45.6-11.2c-22.4-12-39.2-32.8-47.2-56.8c-7.2-24.8-4.8-50.4,7.2-73.6
	c16.8-31.2,49.6-51.2,85.6-51.2c16,0,31.2,4,45.6,11.2c17.6,9.6,32,24,40.8,41.6C260.9,157.6,260.1,191.2,245.7,218.4z M451.3,186.4
	c-20.8-23.2-56-41.6-100.8-52.8C339.3,92,320.9,58.4,297.7,40C372.9,54.4,433.7,112,451.3,186.4z M456.1,225.6h-93.6
	c-0.8-27.2-3.2-53.6-8.8-76.8C411.3,164,451.3,192.8,456.1,225.6z M260.9,37.6c31.2,4.8,59.2,40.8,74.4,93.6
	c-23.2-4.8-48-7.2-74.4-7.2V37.6z M260.9,217.6c11.2-25.6,12-54.4,3.2-80.8c26.4,0,52,3.2,75.2,8c5.6,24.8,9.6,52,9.6,80.8h-88
	L260.9,217.6L260.9,217.6z M260.9,239.2h88.8c-0.8,28.8-4,56-9.6,80.8c-24.8,5.6-51.2,8-79.2,8V239.2z M260.9,428v-86.4
	c26.4,0,51.2-2.4,74.4-6.4C319.3,387.2,292.1,424,260.9,428z M297.7,425.6c22.4-18.4,41.6-52,52.8-93.6
	c44.8-10.4,80.8-29.6,101.6-52.8C433.7,352.8,372.9,411.2,297.7,425.6z M353.7,316c5.6-23.2,8.8-48.8,8.8-76.8h93.6
	C451.3,272.8,411.3,301.6,353.7,316z"/>
<g>
	<g>
		<path d="M202.9,115.2c-20-10.4-42.4-12.8-64-6.4s-39.2,20.8-49.6,40.8c-3.2,3.2-1.6,8,1.6,9.6c0.8,0.8,2.4,0.8,3.2,0.8
			c2.4,0,4.8-1.6,6.4-4c8.8-16.8,24-28.8,41.6-34.4c18.4-5.6,36.8-3.2,53.6,5.6c3.2,1.6,7.2,0.8,9.6-2.4
			C206.9,121.6,206.1,117.6,202.9,115.2z"/>
	</g>
</g>
<circle class="st0" cx="160.2" cy="173.5" r="95.5"/>
<g>
	<g>
		<path d="M202.9,115.2c-20-10.4-42.4-12.8-64-6.4s-39.2,20.8-49.6,40.8c-3.2,3.2-1.6,8,1.6,9.6c0.8,0.8,2.4,0.8,3.2,0.8
			c2.4,0,4.8-1.6,6.4-4c8.8-16.8,24-28.8,41.6-34.4c18.4-5.6,36.8-3.2,53.6,5.6c3.2,1.6,7.2,0.8,9.6-2.4
			C206.9,121.6,206.1,117.6,202.9,115.2z"/>
	</g>
</g>
</svg>
