<?xml version="1.0" encoding="utf-8"?>
<!-- Generator: Adobe Illustrator 21.0.0, SVG Export Plug-In . SVG Version: 6.00 Build 0)  -->
<svg version="1.1" id="Слой_1" xmlns="http://www.w3.org/2000/svg" xmlns:xlink="http://www.w3.org/1999/xlink" x="0px" y="0px"
	 viewBox="0 0 121.3 75.8" style="enable-background:new 0 0 121.3 75.8;" xml:space="preserve">
<style type="text/css">
	.st0{fill:#FFFFFF;}
	.st1{font-family:'Ubuntu-Regular';}
	.st2{font-size:48px;}
</style>
<g>
	<g>
		<path class="st0" d="M92.6,0C76.8,0,63.9,12.9,63.9,28.7c0,15.4,26.5,45.3,27.6,46.6c0.5,0.6,1.5,0.7,2.1,0.1c0,0,0.1-0.1,0.1-0.1
			c1.1-1.3,27.6-31.1,27.6-46.6C121.3,12.9,108.4,0,92.6,0z M92.6,72c-5.1-5.9-25.7-30.7-25.7-43.3C66.9,14.5,78.4,3,92.6,3
			s25.7,11.5,25.7,25.7C118.3,41.3,97.7,66.2,92.6,72z"/>
	</g>
</g>
<g>
	<g>
		<path class="st0" d="M93.1,14.4c-8.6,0-15.5,7-15.5,15.6s7,15.5,15.6,15.5c8.6,0,15.5-7,15.5-15.6
			C108.7,21.4,101.7,14.4,93.1,14.4z M93.1,42.6c-7,0-12.6-5.6-12.6-12.6s5.6-12.6,12.6-12.6c7,0,12.6,5.6,12.6,12.6
			C105.7,36.9,100.1,42.6,93.1,42.6z"/>
	</g>
</g>
<text transform="matrix(1 0 0 1 -2.4167 51.1289)" class="st0 st1 st2">://</text>
</svg>
