<?xml version="1.0" encoding="utf-8"?>
<!-- Generator: Adobe Illustrator 21.0.0, SVG Export Plug-In . SVG Version: 6.00 Build 0)  -->
<svg version="1.1" id="Слой_1" xmlns="http://www.w3.org/2000/svg" xmlns:xlink="http://www.w3.org/1999/xlink" x="0px" y="0px"
	 viewBox="0 0 301.5 280.2" style="enable-background:new 0 0 301.5 280.2;" xml:space="preserve">
<style type="text/css">
	.st0{fill:none;}
	.st1{enable-background:new    ;}
</style>
<g transform="translate(80,80)">
	<g transform="translate(320,0) scale(0.4,0.4)">
		<g transform="">
			<rect x="-722.1" y="-200" width="22" height="22"/>
		</g>
	</g>
	<g transform="translate(360,0) scale(0.4,0.4)">
		<g transform="">
			<rect x="-800.1" y="-200" width="22" height="22"/>
		</g>
	</g>
	<g transform="translate(400,0) scale(0.4,0.4)">
		<g transform="">
			<rect x="-878.1" y="-200" width="22" height="22"/>
		</g>
	</g>
	<g transform="translate(480,0) scale(0.4,0.4)">
		<g transform="">
			<rect x="-1034.1" y="-200" width="22" height="22"/>
		</g>
	</g>
	<g transform="translate(520,0) scale(0.4,0.4)">
		<g transform="">
			<rect x="-1112.1" y="-200" width="22" height="22"/>
		</g>
	</g>
	<g transform="translate(320,40) scale(0.4,0.4)">
		<g transform="">
			<rect x="-722.1" y="-278" width="22" height="22"/>
		</g>
	</g>
	<g transform="translate(400,40) scale(0.4,0.4)">
		<g transform="">
			<rect x="-878.1" y="-278" width="22" height="22"/>
		</g>
	</g>
	<g transform="translate(480,40) scale(0.4,0.4)">
		<g transform="">
			<rect x="-1034.1" y="-278" width="22" height="22"/>
		</g>
	</g>
	<g transform="translate(560,40) scale(0.4,0.4)">
		<g transform="">
			<rect x="-1190.1" y="-278" width="22" height="22"/>
		</g>
	</g>
	<g transform="translate(320,80) scale(0.4,0.4)">
		<g transform="">
			<rect x="-722.1" y="-356" width="22" height="22"/>
		</g>
	</g>
	<g transform="translate(360,80) scale(0.4,0.4)">
		<g transform="">
			<rect x="-800.1" y="-356" width="22" height="22"/>
		</g>
	</g>
	<g transform="translate(440,80) scale(0.4,0.4)">
		<g transform="">
			<rect x="-956.1" y="-356" width="22" height="22"/>
		</g>
	</g>
	<g transform="translate(480,80) scale(0.4,0.4)">
		<g transform="">
			<rect x="-1034.1" y="-356" width="22" height="22"/>
		</g>
	</g>
	<g transform="translate(520,80) scale(0.4,0.4)">
		<g transform="">
			<rect x="-1112.1" y="-356" width="22" height="22"/>
		</g>
	</g>
	<g transform="translate(360,120) scale(0.4,0.4)">
		<g transform="">
			<rect x="-800.1" y="-434" width="22" height="22"/>
		</g>
	</g>
	<g transform="translate(400,120) scale(0.4,0.4)">
		<g transform="">
			<rect x="-878.1" y="-434" width="22" height="22"/>
		</g>
	</g>
	<g transform="translate(480,120) scale(0.4,0.4)">
		<g transform="">
			<rect x="-1034.1" y="-434" width="22" height="22"/>
		</g>
	</g>
	<g transform="translate(520,120) scale(0.4,0.4)">
		<g transform="">
			<rect x="-1112.1" y="-434" width="22" height="22"/>
		</g>
	</g>
	<g transform="translate(600,120) scale(0.4,0.4)">
		<g transform="">
			<rect x="-1268.1" y="-434" width="22" height="22"/>
		</g>
	</g>
	<g transform="translate(640,120) scale(0.4,0.4)">
		<g transform="">
			<rect x="-1346.1" y="-434" width="22" height="22"/>
		</g>
	</g>
	<g transform="translate(320,160) scale(0.4,0.4)">
		<g transform="">
			<rect x="-722.1" y="-512" width="22" height="22"/>
		</g>
	</g>
	<g transform="translate(360,160) scale(0.4,0.4)">
		<g transform="">
			<rect x="-800.1" y="-512" width="22" height="22"/>
		</g>
	</g>
	<g transform="translate(400,160) scale(0.4,0.4)">
		<g transform="">
			<rect x="-878.1" y="-512" width="22" height="22"/>
		</g>
	</g>
	<g transform="translate(440,160) scale(0.4,0.4)">
		<g transform="">
			<rect x="-956.1" y="-512" width="22" height="22"/>
		</g>
	</g>
	<g transform="translate(560,200) scale(0.4,0.4)">
		<g transform="">
			<rect x="-1190.1" y="-590" width="22" height="22"/>
		</g>
	</g>
	<g transform="translate(320,240) scale(0.4,0.4)">
		<g transform="">
			<rect x="-722.1" y="-668" width="22" height="22"/>
		</g>
	</g>
	<g transform="translate(400,240) scale(0.4,0.4)">
		<g transform="">
			<rect x="-878.1" y="-668" width="22" height="22"/>
		</g>
	</g>
	<g transform="translate(480,240) scale(0.4,0.4)">
		<g transform="">
			<rect x="-1034.1" y="-668" width="22" height="22"/>
		</g>
	</g>
	<g transform="translate(560,240) scale(0.4,0.4)">
		<g transform="">
			<rect x="-1190.1" y="-668" width="22" height="22"/>
		</g>
	</g>
	<g transform="translate(640,240) scale(0.4,0.4)">
		<g transform="">
			<rect x="-1346.1" y="-668" width="22" height="22"/>
		</g>
	</g>
	<g transform="translate(360,280) scale(0.4,0.4)">
		<g transform="">
			<rect x="-800.1" y="-746" width="22" height="22"/>
		</g>
	</g>
	<g transform="translate(440,280) scale(0.4,0.4)">
		<g transform="">
			<rect x="-956.1" y="-746" width="22" height="22"/>
		</g>
	</g>
	<g transform="translate(520,280) scale(0.4,0.4)">
		<g transform="">
			<rect x="-1112.1" y="-746" width="22" height="22"/>
		</g>
	</g>
	<g transform="translate(600,280) scale(0.4,0.4)">
		<g transform="">
			<rect x="-1268.1" y="-746" width="22" height="22"/>
		</g>
	</g>
	<g transform="translate(0,320) scale(0.4,0.4)">
		<g transform="">
			<rect x="-98.1" y="-824" width="22" height="22"/>
		</g>
	</g>
	<g transform="translate(120,320) scale(0.4,0.4)">
		<g transform="">
			<rect x="-332.1" y="-824" width="22" height="22"/>
		</g>
	</g>
	<g transform="translate(160,320) scale(0.4,0.4)">
		<g transform="">
			<rect x="-410.1" y="-824" width="22" height="22"/>
		</g>
	</g>
	<g transform="translate(200,320) scale(0.4,0.4)">
		<g transform="">
			<rect x="-488.1" y="-824" width="22" height="22"/>
		</g>
	</g>
	<g transform="translate(240,320) scale(0.4,0.4)">
		<g transform="">
			<rect x="-566.1" y="-824" width="22" height="22"/>
		</g>
	</g>
	<g transform="translate(280,320) scale(0.4,0.4)">
		<g transform="">
			<rect x="-644.1" y="-824" width="22" height="22"/>
		</g>
	</g>
	<g transform="translate(320,320) scale(0.4,0.4)">
		<g transform="">
			<rect x="-722.1" y="-824" width="22" height="22"/>
		</g>
	</g>
	<g transform="translate(440,320) scale(0.4,0.4)">
		<g transform="">
			<rect x="-956.1" y="-824" width="22" height="22"/>
		</g>
	</g>
	<g transform="translate(600,320) scale(0.4,0.4)">
		<g transform="">
			<rect x="-1268.1" y="-824" width="22" height="22"/>
		</g>
	</g>
	<g transform="translate(680,320) scale(0.4,0.4)">
		<g transform="">
			<rect x="-1424.1" y="-824" width="22" height="22"/>
		</g>
	</g>
	<g transform="translate(800,320) scale(0.4,0.4)">
		<g transform="">
			<rect x="-1658.1" y="-824" width="22" height="22"/>
		</g>
	</g>
	<g transform="translate(880,320) scale(0.4,0.4)">
		<g transform="">
			<rect x="-1814.1" y="-824" width="22" height="22"/>
		</g>
	</g>
	<g transform="translate(920,320) scale(0.4,0.4)">
		<g transform="">
			<rect x="-1892.1" y="-824" width="22" height="22"/>
		</g>
	</g>
	<g transform="translate(960,320) scale(0.4,0.4)">
		<g transform="">
			<rect x="-1970.1" y="-824" width="22" height="22"/>
		</g>
	</g>
	<g transform="translate(0,360) scale(0.4,0.4)">
		<g transform="">
			<rect x="-98.1" y="-902" width="22" height="22"/>
		</g>
	</g>
	<g transform="translate(40,360) scale(0.4,0.4)">
		<g transform="">
			<rect x="-176.1" y="-902" width="22" height="22"/>
		</g>
	</g>
	<g transform="translate(80,360) scale(0.4,0.4)">
		<g transform="">
			<rect x="-254.1" y="-902" width="22" height="22"/>
		</g>
	</g>
	<g transform="translate(120,360) scale(0.4,0.4)">
		<g transform="">
			<rect x="-332.1" y="-902" width="22" height="22"/>
		</g>
	</g>
	<g transform="translate(200,360) scale(0.4,0.4)">
		<g transform="">
			<rect x="-488.1" y="-902" width="22" height="22"/>
		</g>
	</g>
	<g transform="translate(280,360) scale(0.4,0.4)">
		<g transform="">
			<rect x="-644.1" y="-902" width="22" height="22"/>
		</g>
	</g>
	<g transform="translate(440,360) scale(0.4,0.4)">
		<g transform="">
			<rect x="-956.1" y="-902" width="22" height="22"/>
		</g>
	</g>
	<g transform="translate(480,360) scale(0.4,0.4)">
		<g transform="">
			<rect x="-1034.1" y="-902" width="22" height="22"/>
		</g>
	</g>
	<g transform="translate(520,360) scale(0.4,0.4)">
		<g transform="">
			<rect x="-1112.1" y="-902" width="22" height="22"/>
		</g>
	</g>
	<g transform="translate(560,360) scale(0.4,0.4)">
		<g transform="">
			<rect x="-1190.1" y="-902" width="22" height="22"/>
		</g>
	</g>
	<g transform="translate(600,360) scale(0.4,0.4)">
		<g transform="">
			<rect x="-1268.1" y="-902" width="22" height="22"/>
		</g>
	</g>
	<g transform="translate(680,360) scale(0.4,0.4)">
		<g transform="">
			<rect x="-1424.1" y="-902" width="22" height="22"/>
		</g>
	</g>
	<g transform="translate(760,360) scale(0.4,0.4)">
		<g transform="">
			<rect x="-1580.1" y="-902" width="22" height="22"/>
		</g>
	</g>
	<g transform="translate(800,360) scale(0.4,0.4)">
		<g transform="">
			<rect x="-1658.1" y="-902" width="22" height="22"/>
		</g>
	</g>
	<g transform="translate(840,360) scale(0.4,0.4)">
		<g transform="">
			<rect x="-1736.1" y="-902" width="22" height="22"/>
		</g>
	</g>
	<g transform="translate(880,360) scale(0.4,0.4)">
		<g transform="">
			<rect x="-1814.1" y="-902" width="22" height="22"/>
		</g>
	</g>
	<g transform="translate(920,360) scale(0.4,0.4)">
		<g transform="">
			<rect x="-1892.1" y="-902" width="22" height="22"/>
		</g>
	</g>
	<g transform="translate(0,400) scale(0.4,0.4)">
		<g transform="">
			<rect x="-98.1" y="-980" width="22" height="22"/>
		</g>
	</g>
	<g transform="translate(160,400) scale(0.4,0.4)">
		<g transform="">
			<rect x="-410.1" y="-980" width="22" height="22"/>
		</g>
	</g>
	<g transform="translate(240,400) scale(0.4,0.4)">
		<g transform="">
			<rect x="-566.1" y="-980" width="22" height="22"/>
		</g>
	</g>
	<g transform="translate(440,400) scale(0.4,0.4)">
		<g transform="">
			<rect x="-956.1" y="-980" width="22" height="22"/>
		</g>
	</g>
	<g transform="translate(480,400) scale(0.4,0.4)">
		<g transform="">
			<rect x="-1034.1" y="-980" width="22" height="22"/>
		</g>
	</g>
	<g transform="translate(520,400) scale(0.4,0.4)">
		<g transform="">
			<rect x="-1112.1" y="-980" width="22" height="22"/>
		</g>
	</g>
	<g transform="translate(600,400) scale(0.4,0.4)">
		<g transform="">
			<rect x="-1268.1" y="-980" width="22" height="22"/>
		</g>
	</g>
	<g transform="translate(680,400) scale(0.4,0.4)">
		<g transform="">
			<rect x="-1424.1" y="-980" width="22" height="22"/>
		</g>
	</g>
	<g transform="translate(760,400) scale(0.4,0.4)">
		<g transform="">
			<rect x="-1580.1" y="-980" width="22" height="22"/>
		</g>
	</g>
	<g transform="translate(840,400) scale(0.4,0.4)">
		<g transform="">
			<rect x="-1736.1" y="-980" width="22" height="22"/>
		</g>
	</g>
	<g transform="translate(960,400) scale(0.4,0.4)">
		<g transform="">
			<rect x="-1970.1" y="-980" width="22" height="22"/>
		</g>
	</g>
	<g transform="translate(0,440) scale(0.4,0.4)">
		<g transform="">
			<rect x="-98.1" y="-1058" width="22" height="22"/>
		</g>
	</g>
	<g transform="translate(40,440) scale(0.4,0.4)">
		<g transform="">
			<rect x="-176.1" y="-1058" width="22" height="22"/>
		</g>
	</g>
	<g transform="translate(120,440) scale(0.4,0.4)">
		<g transform="">
			<rect x="-332.1" y="-1058" width="22" height="22"/>
		</g>
	</g>
	<g transform="translate(160,440) scale(0.4,0.4)">
		<g transform="">
			<rect x="-410.1" y="-1058" width="22" height="22"/>
		</g>
	</g>
	<g transform="translate(200,440) scale(0.4,0.4)">
		<g transform="">
			<rect x="-488.1" y="-1058" width="22" height="22"/>
		</g>
	</g>
	<g transform="translate(360,440) scale(0.4,0.4)">
		<g transform="">
			<rect x="-800.1" y="-1058" width="22" height="22"/>
		</g>
	</g>
	<g transform="translate(400,440) scale(0.4,0.4)">
		<g transform="">
			<rect x="-878.1" y="-1058" width="22" height="22"/>
		</g>
	</g>
	<g transform="translate(440,440) scale(0.4,0.4)">
		<g transform="">
			<rect x="-956.1" y="-1058" width="22" height="22"/>
		</g>
	</g>
	<g transform="translate(560,440) scale(0.4,0.4)">
		<g transform="">
			<rect x="-1190.1" y="-1058" width="22" height="22"/>
		</g>
	</g>
	<g transform="translate(640,440) scale(0.4,0.4)">
		<g transform="">
			<rect x="-1346.1" y="-1058" width="22" height="22"/>
		</g>
	</g>
	<g transform="translate(720,440) scale(0.4,0.4)">
		<g transform="">
			<rect x="-1502.1" y="-1058" width="22" height="22"/>
		</g>
	</g>
	<g transform="translate(760,440) scale(0.4,0.4)">
		<g transform="">
			<rect x="-1580.1" y="-1058" width="22" height="22"/>
		</g>
	</g>
	<g transform="translate(800,440) scale(0.4,0.4)">
		<g transform="">
			<rect x="-1658.1" y="-1058" width="22" height="22"/>
		</g>
	</g>
	<g transform="translate(840,440) scale(0.4,0.4)">
		<g transform="">
			<rect x="-1736.1" y="-1058" width="22" height="22"/>
		</g>
	</g>
	<g transform="translate(880,440) scale(0.4,0.4)">
		<g transform="">
			<rect x="-1814.1" y="-1058" width="22" height="22"/>
		</g>
	</g>
	<g transform="translate(920,440) scale(0.4,0.4)">
		<g transform="">
			<rect x="-1892.1" y="-1058" width="22" height="22"/>
		</g>
	</g>
	<g transform="translate(960,440) scale(0.4,0.4)">
		<g transform="">
			<rect x="-1970.1" y="-1058" width="22" height="22"/>
		</g>
	</g>
	<g transform="translate(0,480) scale(0.4,0.4)">
		<g transform="">
			<rect x="-98.1" y="-1136" width="22" height="22"/>
		</g>
	</g>
	<g transform="translate(40,480) scale(0.4,0.4)">
		<g transform="">
			<rect x="-176.1" y="-1136" width="22" height="22"/>
		</g>
	</g>
	<g transform="translate(80,480) scale(0.4,0.4)">
		<g transform="">
			<rect x="-254.1" y="-1136" width="22" height="22"/>
		</g>
	</g>
	<g transform="translate(160,480) scale(0.4,0.4)">
		<g transform="">
			<rect x="-410.1" y="-1136" width="22" height="22"/>
		</g>
	</g>
	<g transform="translate(240,480) scale(0.4,0.4)">
		<g transform="">
			<rect x="-566.1" y="-1136" width="22" height="22"/>
		</g>
	</g>
	<g transform="translate(280,480) scale(0.4,0.4)">
		<g transform="">
			<rect x="-644.1" y="-1136" width="22" height="22"/>
		</g>
	</g>
	<g transform="translate(360,480) scale(0.4,0.4)">
		<g transform="">
			<rect x="-800.1" y="-1136" width="22" height="22"/>
		</g>
	</g>
	<g transform="translate(520,480) scale(0.4,0.4)">
		<g transform="">
			<rect x="-1112.1" y="-1136" width="22" height="22"/>
		</g>
	</g>
	<g transform="translate(560,480) scale(0.4,0.4)">
		<g transform="">
			<rect x="-1190.1" y="-1136" width="22" height="22"/>
		</g>
	</g>
	<g transform="translate(600,480) scale(0.4,0.4)">
		<g transform="">
			<rect x="-1268.1" y="-1136" width="22" height="22"/>
		</g>
	</g>
	<g transform="translate(720,480) scale(0.4,0.4)">
		<g transform="">
			<rect x="-1502.1" y="-1136" width="22" height="22"/>
		</g>
	</g>
	<g transform="translate(760,480) scale(0.4,0.4)">
		<g transform="">
			<rect x="-1580.1" y="-1136" width="22" height="22"/>
		</g>
	</g>
	<g transform="translate(960,480) scale(0.4,0.4)">
		<g transform="">
			<rect x="-1970.1" y="-1136" width="22" height="22"/>
		</g>
	</g>
	<g transform="translate(0,520) scale(0.4,0.4)">
		<g transform="">
			<rect x="-98.1" y="-1214" width="22" height="22"/>
		</g>
	</g>
	<g transform="translate(40,520) scale(0.4,0.4)">
		<g transform="">
			<rect x="-176.1" y="-1214" width="22" height="22"/>
		</g>
	</g>
	<g transform="translate(200,520) scale(0.4,0.4)">
		<g transform="">
			<rect x="-488.1" y="-1214" width="22" height="22"/>
		</g>
	</g>
	<g transform="translate(280,520) scale(0.4,0.4)">
		<g transform="">
			<rect x="-644.1" y="-1214" width="22" height="22"/>
		</g>
	</g>
	<g transform="translate(320,520) scale(0.4,0.4)">
		<g transform="">
			<rect x="-722.1" y="-1214" width="22" height="22"/>
		</g>
	</g>
	<g transform="translate(400,520) scale(0.4,0.4)">
		<g transform="">
			<rect x="-878.1" y="-1214" width="22" height="22"/>
		</g>
	</g>
	<g transform="translate(480,520) scale(0.4,0.4)">
		<g transform="">
			<rect x="-1034.1" y="-1214" width="22" height="22"/>
		</g>
	</g>
	<g transform="translate(560,520) scale(0.4,0.4)">
		<g transform="">
			<rect x="-1190.1" y="-1214" width="22" height="22"/>
		</g>
	</g>
	<g transform="translate(600,520) scale(0.4,0.4)">
		<g transform="">
			<rect x="-1268.1" y="-1214" width="22" height="22"/>
		</g>
	</g>
	<g transform="translate(640,520) scale(0.4,0.4)">
		<g transform="">
			<rect x="-1346.1" y="-1214" width="22" height="22"/>
		</g>
	</g>
	<g transform="translate(800,520) scale(0.4,0.4)">
		<g transform="">
			<rect x="-1658.1" y="-1214" width="22" height="22"/>
		</g>
	</g>
	<g transform="translate(920,520) scale(0.4,0.4)">
		<g transform="">
			<rect x="-1892.1" y="-1214" width="22" height="22"/>
		</g>
	</g>
	<g transform="translate(0,560) scale(0.4,0.4)">
		<g transform="">
			<rect x="-98.1" y="-1292" width="22" height="22"/>
		</g>
	</g>
	<g transform="translate(40,560) scale(0.4,0.4)">
		<g transform="">
			<rect x="-176.1" y="-1292" width="22" height="22"/>
		</g>
	</g>
	<g transform="translate(80,560) scale(0.4,0.4)">
		<g transform="">
			<rect x="-254.1" y="-1292" width="22" height="22"/>
		</g>
	</g>
	<g transform="translate(160,560) scale(0.4,0.4)">
		<g transform="">
			<rect x="-410.1" y="-1292" width="22" height="22"/>
		</g>
	</g>
	<g transform="translate(200,560) scale(0.4,0.4)">
		<g transform="">
			<rect x="-488.1" y="-1292" width="22" height="22"/>
		</g>
	</g>
	<g transform="translate(240,560) scale(0.4,0.4)">
		<g transform="">
			<rect x="-566.1" y="-1292" width="22" height="22"/>
		</g>
	</g>
	<g transform="translate(280,560) scale(0.4,0.4)">
		<g transform="">
			<rect x="-644.1" y="-1292" width="22" height="22"/>
		</g>
	</g>
	<g transform="translate(560,560) scale(0.4,0.4)">
		<g transform="">
			<rect x="-1190.1" y="-1292" width="22" height="22"/>
		</g>
	</g>
	<g transform="translate(600,560) scale(0.4,0.4)">
		<g transform="">
			<rect x="-1268.1" y="-1292" width="22" height="22"/>
		</g>
	</g>
	<g transform="translate(680,560) scale(0.4,0.4)">
		<g transform="">
			<rect x="-1424.1" y="-1292" width="22" height="22"/>
		</g>
	</g>
	<g transform="translate(720,560) scale(0.4,0.4)">
		<g transform="">
			<rect x="-1502.1" y="-1292" width="22" height="22"/>
		</g>
	</g>
	<g transform="translate(840,560) scale(0.4,0.4)">
		<g transform="">
			<rect x="-1736.1" y="-1292" width="22" height="22"/>
		</g>
	</g>
	<g transform="translate(880,560) scale(0.4,0.4)">
		<g transform="">
			<rect x="-1814.1" y="-1292" width="22" height="22"/>
		</g>
	</g>
	<g transform="translate(920,560) scale(0.4,0.4)">
		<g transform="">
			<rect x="-1892.1" y="-1292" width="22" height="22"/>
		</g>
	</g>
	<g transform="translate(960,560) scale(0.4,0.4)">
		<g transform="">
			<rect x="-1970.1" y="-1292" width="22" height="22"/>
		</g>
	</g>
	<g transform="translate(0,600) scale(0.4,0.4)">
		<g transform="">
			<rect x="-98.1" y="-1370" width="22" height="22"/>
		</g>
	</g>
	<g transform="translate(120,600) scale(0.4,0.4)">
		<g transform="">
			<rect x="-332.1" y="-1370" width="22" height="22"/>
		</g>
	</g>
	<g transform="translate(160,600) scale(0.4,0.4)">
		<g transform="">
			<rect x="-410.1" y="-1370" width="22" height="22"/>
		</g>
	</g>
	<g transform="translate(360,600) scale(0.4,0.4)">
		<g transform="">
			<rect x="-800.1" y="-1370" width="22" height="22"/>
		</g>
	</g>
	<g transform="translate(400,600) scale(0.4,0.4)">
		<g transform="">
			<rect x="-878.1" y="-1370" width="22" height="22"/>
		</g>
	</g>
	<g transform="translate(480,600) scale(0.4,0.4)">
		<g transform="">
			<rect x="-1034.1" y="-1370" width="22" height="22"/>
		</g>
	</g>
	<g transform="translate(520,600) scale(0.4,0.4)">
		<g transform="">
			<rect x="-1112.1" y="-1370" width="22" height="22"/>
		</g>
	</g>
	<g transform="translate(560,600) scale(0.4,0.4)">
		<g transform="">
			<rect x="-1190.1" y="-1370" width="22" height="22"/>
		</g>
	</g>
	<g transform="translate(720,600) scale(0.4,0.4)">
		<g transform="">
			<rect x="-1502.1" y="-1370" width="22" height="22"/>
		</g>
	</g>
	<g transform="translate(760,600) scale(0.4,0.4)">
		<g transform="">
			<rect x="-1580.1" y="-1370" width="22" height="22"/>
		</g>
	</g>
	<g transform="translate(880,600) scale(0.4,0.4)">
		<g transform="">
			<rect x="-1814.1" y="-1370" width="22" height="22"/>
		</g>
	</g>
	<g transform="translate(960,600) scale(0.4,0.4)">
		<g transform="">
			<rect x="-1970.1" y="-1370" width="22" height="22"/>
		</g>
	</g>
	<g transform="translate(0,640) scale(0.4,0.4)">
		<g transform="">
			<rect x="-98.1" y="-1448" width="22" height="22"/>
		</g>
	</g>
	<g transform="translate(120,640) scale(0.4,0.4)">
		<g transform="">
			<rect x="-332.1" y="-1448" width="22" height="22"/>
		</g>
	</g>
	<g transform="translate(160,640) scale(0.4,0.4)">
		<g transform="">
			<rect x="-410.1" y="-1448" width="22" height="22"/>
		</g>
	</g>
	<g transform="translate(200,640) scale(0.4,0.4)">
		<g transform="">
			<rect x="-488.1" y="-1448" width="22" height="22"/>
		</g>
	</g>
	<g transform="translate(240,640) scale(0.4,0.4)">
		<g transform="">
			<rect x="-566.1" y="-1448" width="22" height="22"/>
		</g>
	</g>
	<g transform="translate(280,640) scale(0.4,0.4)">
		<g transform="">
			<rect x="-644.1" y="-1448" width="22" height="22"/>
		</g>
	</g>
	<g transform="translate(360,640) scale(0.4,0.4)">
		<g transform="">
			<rect x="-800.1" y="-1448" width="22" height="22"/>
		</g>
	</g>
	<g transform="translate(440,640) scale(0.4,0.4)">
		<g transform="">
			<rect x="-956.1" y="-1448" width="22" height="22"/>
		</g>
	</g>
	<g transform="translate(480,640) scale(0.4,0.4)">
		<g transform="">
			<rect x="-1034.1" y="-1448" width="22" height="22"/>
		</g>
	</g>
	<g transform="translate(600,640) scale(0.4,0.4)">
		<g transform="">
			<rect x="-1268.1" y="-1448" width="22" height="22"/>
		</g>
	</g>
	<g transform="translate(640,640) scale(0.4,0.4)">
		<g transform="">
			<rect x="-1346.1" y="-1448" width="22" height="22"/>
		</g>
	</g>
	<g transform="translate(680,640) scale(0.4,0.4)">
		<g transform="">
			<rect x="-1424.1" y="-1448" width="22" height="22"/>
		</g>
	</g>
	<g transform="translate(720,640) scale(0.4,0.4)">
		<g transform="">
			<rect x="-1502.1" y="-1448" width="22" height="22"/>
		</g>
	</g>
	<g transform="translate(760,640) scale(0.4,0.4)">
		<g transform="">
			<rect x="-1580.1" y="-1448" width="22" height="22"/>
		</g>
	</g>
	<g transform="translate(800,640) scale(0.4,0.4)">
		<g transform="">
			<rect x="-1658.1" y="-1448" width="22" height="22"/>
		</g>
	</g>
	<g transform="translate(880,640) scale(0.4,0.4)">
		<g transform="">
			<rect x="-1814.1" y="-1448" width="22" height="22"/>
		</g>
	</g>
	<g transform="translate(920,640) scale(0.4,0.4)">
		<g transform="">
			<rect x="-1892.1" y="-1448" width="22" height="22"/>
		</g>
	</g>
	<g transform="translate(320,680) scale(0.4,0.4)">
		<g transform="">
			<rect x="-722.1" y="-1526" width="22" height="22"/>
		</g>
	</g>
	<g transform="translate(440,680) scale(0.4,0.4)">
		<g transform="">
			<rect x="-956.1" y="-1526" width="22" height="22"/>
		</g>
	</g>
	<g transform="translate(600,680) scale(0.4,0.4)">
		<g transform="">
			<rect x="-1268.1" y="-1526" width="22" height="22"/>
		</g>
	</g>
	<g transform="translate(640,680) scale(0.4,0.4)">
		<g transform="">
			<rect x="-1346.1" y="-1526" width="22" height="22"/>
		</g>
	</g>
	<g transform="translate(800,680) scale(0.4,0.4)">
		<g transform="">
			<rect x="-1658.1" y="-1526" width="22" height="22"/>
		</g>
	</g>
	<g transform="translate(920,680) scale(0.4,0.4)">
		<g transform="">
			<rect x="-1892.1" y="-1526" width="22" height="22"/>
		</g>
	</g>
	<g transform="translate(320,720) scale(0.4,0.4)">
		<g transform="">
			<rect x="-722.1" y="-1604" width="22" height="22"/>
		</g>
	</g>
	<g transform="translate(360,720) scale(0.4,0.4)">
		<g transform="">
			<rect x="-800.1" y="-1604" width="22" height="22"/>
		</g>
	</g>
	<g transform="translate(480,720) scale(0.4,0.4)">
		<g transform="">
			<rect x="-1034.1" y="-1604" width="22" height="22"/>
		</g>
	</g>
	<g transform="translate(520,720) scale(0.4,0.4)">
		<g transform="">
			<rect x="-1112.1" y="-1604" width="22" height="22"/>
		</g>
	</g>
	<g transform="translate(560,720) scale(0.4,0.4)">
		<g transform="">
			<rect x="-1190.1" y="-1604" width="22" height="22"/>
		</g>
	</g>
	<g transform="translate(640,720) scale(0.4,0.4)">
		<g transform="">
			<rect x="-1346.1" y="-1604" width="22" height="22"/>
		</g>
	</g>
	<g transform="translate(720,720) scale(0.4,0.4)">
		<g transform="">
			<rect x="-1502.1" y="-1604" width="22" height="22"/>
		</g>
	</g>
	<g transform="translate(800,720) scale(0.4,0.4)">
		<g transform="">
			<rect x="-1658.1" y="-1604" width="22" height="22"/>
		</g>
	</g>
	<g transform="translate(840,720) scale(0.4,0.4)">
		<g transform="">
			<rect x="-1736.1" y="-1604" width="22" height="22"/>
		</g>
	</g>
	<g transform="translate(960,720) scale(0.4,0.4)">
		<g transform="">
			<rect x="-1970.1" y="-1604" width="22" height="22"/>
		</g>
	</g>
	<g transform="translate(320,760) scale(0.4,0.4)">
		<g transform="">
			<rect x="-722.1" y="-1682" width="22" height="22"/>
		</g>
	</g>
	<g transform="translate(360,760) scale(0.4,0.4)">
		<g transform="">
			<rect x="-800.1" y="-1682" width="22" height="22"/>
		</g>
	</g>
	<g transform="translate(400,760) scale(0.4,0.4)">
		<g transform="">
			<rect x="-878.1" y="-1682" width="22" height="22"/>
		</g>
	</g>
	<g transform="translate(440,760) scale(0.4,0.4)">
		<g transform="">
			<rect x="-956.1" y="-1682" width="22" height="22"/>
		</g>
	</g>
	<g transform="translate(520,760) scale(0.4,0.4)">
		<g transform="">
			<rect x="-1112.1" y="-1682" width="22" height="22"/>
		</g>
	</g>
	<g transform="translate(600,760) scale(0.4,0.4)">
		<g transform="">
			<rect x="-1268.1" y="-1682" width="22" height="22"/>
		</g>
	</g>
	<g transform="translate(640,760) scale(0.4,0.4)">
		<g transform="">
			<rect x="-1346.1" y="-1682" width="22" height="22"/>
		</g>
	</g>
	<g transform="translate(800,760) scale(0.4,0.4)">
		<g transform="">
			<rect x="-1658.1" y="-1682" width="22" height="22"/>
		</g>
	</g>
	<g transform="translate(960,760) scale(0.4,0.4)">
		<g transform="">
			<rect x="-1970.1" y="-1682" width="22" height="22"/>
		</g>
	</g>
	<g transform="translate(320,800) scale(0.4,0.4)">
		<g transform="">
			<rect x="-722.1" y="-1760" width="22" height="22"/>
		</g>
	</g>
	<g transform="translate(440,800) scale(0.4,0.4)">
		<g transform="">
			<rect x="-956.1" y="-1760" width="22" height="22"/>
		</g>
	</g>
	<g transform="translate(520,800) scale(0.4,0.4)">
		<g transform="">
			<rect x="-1112.1" y="-1760" width="22" height="22"/>
		</g>
	</g>
	<g transform="translate(600,800) scale(0.4,0.4)">
		<g transform="">
			<rect x="-1268.1" y="-1760" width="22" height="22"/>
		</g>
	</g>
	<g transform="translate(640,800) scale(0.4,0.4)">
		<g transform="">
			<rect x="-1346.1" y="-1760" width="22" height="22"/>
		</g>
	</g>
	<g transform="translate(680,800) scale(0.4,0.4)">
		<g transform="">
			<rect x="-1424.1" y="-1760" width="22" height="22"/>
		</g>
	</g>
	<g transform="translate(720,800) scale(0.4,0.4)">
		<g transform="">
			<rect x="-1502.1" y="-1760" width="22" height="22"/>
		</g>
	</g>
	<g transform="translate(760,800) scale(0.4,0.4)">
		<g transform="">
			<rect x="-1580.1" y="-1760" width="22" height="22"/>
		</g>
	</g>
	<g transform="translate(800,800) scale(0.4,0.4)">
		<g transform="">
			<rect x="-1658.1" y="-1760" width="22" height="22"/>
		</g>
	</g>
	<g transform="translate(840,800) scale(0.4,0.4)">
		<g transform="">
			<rect x="-1736.1" y="-1760" width="22" height="22"/>
		</g>
	</g>
	<g transform="translate(920,800) scale(0.4,0.4)">
		<g transform="">
			<rect x="-1892.1" y="-1760" width="22" height="22"/>
		</g>
	</g>
	<g transform="translate(960,800) scale(0.4,0.4)">
		<g transform="">
			<rect x="-1970.1" y="-1760" width="22" height="22"/>
		</g>
	</g>
	<g transform="translate(320,840) scale(0.4,0.4)">
		<g transform="">
			<rect x="-722.1" y="-1838" width="22" height="22"/>
		</g>
	</g>
	<g transform="translate(360,840) scale(0.4,0.4)">
		<g transform="">
			<rect x="-800.1" y="-1838" width="22" height="22"/>
		</g>
	</g>
	<g transform="translate(400,840) scale(0.4,0.4)">
		<g transform="">
			<rect x="-878.1" y="-1838" width="22" height="22"/>
		</g>
	</g>
	<g transform="translate(480,840) scale(0.4,0.4)">
		<g transform="">
			<rect x="-1034.1" y="-1838" width="22" height="22"/>
		</g>
	</g>
	<g transform="translate(520,840) scale(0.4,0.4)">
		<g transform="">
			<rect x="-1112.1" y="-1838" width="22" height="22"/>
		</g>
	</g>
	<g transform="translate(600,840) scale(0.4,0.4)">
		<g transform="">
			<rect x="-1268.1" y="-1838" width="22" height="22"/>
		</g>
	</g>
	<g transform="translate(680,840) scale(0.4,0.4)">
		<g transform="">
			<rect x="-1424.1" y="-1838" width="22" height="22"/>
		</g>
	</g>
	<g transform="translate(720,840) scale(0.4,0.4)">
		<g transform="">
			<rect x="-1502.1" y="-1838" width="22" height="22"/>
		</g>
	</g>
	<g transform="translate(840,840) scale(0.4,0.4)">
		<g transform="">
			<rect x="-1736.1" y="-1838" width="22" height="22"/>
		</g>
	</g>
	<g transform="translate(920,840) scale(0.4,0.4)">
		<g transform="">
			<rect x="-1892.1" y="-1838" width="22" height="22"/>
		</g>
	</g>
	<g transform="translate(960,840) scale(0.4,0.4)">
		<g transform="">
			<rect x="-1970.1" y="-1838" width="22" height="22"/>
		</g>
	</g>
	<g transform="translate(400,880) scale(0.4,0.4)">
		<g transform="">
			<rect x="-878.1" y="-1916" width="22" height="22"/>
		</g>
	</g>
	<g transform="translate(440,880) scale(0.4,0.4)">
		<g transform="">
			<rect x="-956.1" y="-1916" width="22" height="22"/>
		</g>
	</g>
	<g transform="translate(520,880) scale(0.4,0.4)">
		<g transform="">
			<rect x="-1112.1" y="-1916" width="22" height="22"/>
		</g>
	</g>
	<g transform="translate(760,880) scale(0.4,0.4)">
		<g transform="">
			<rect x="-1580.1" y="-1916" width="22" height="22"/>
		</g>
	</g>
	<g transform="translate(800,880) scale(0.4,0.4)">
		<g transform="">
			<rect x="-1658.1" y="-1916" width="22" height="22"/>
		</g>
	</g>
	<g transform="translate(880,880) scale(0.4,0.4)">
		<g transform="">
			<rect x="-1814.1" y="-1916" width="22" height="22"/>
		</g>
	</g>
	<g transform="translate(920,880) scale(0.4,0.4)">
		<g transform="">
			<rect x="-1892.1" y="-1916" width="22" height="22"/>
		</g>
	</g>
	<g transform="translate(960,880) scale(0.4,0.4)">
		<g transform="">
			<rect x="-1970.1" y="-1916" width="22" height="22"/>
		</g>
	</g>
	<g transform="translate(400,920) scale(0.4,0.4)">
		<g transform="">
			<rect x="-878.1" y="-1994" width="22" height="22"/>
		</g>
	</g>
	<g transform="translate(440,920) scale(0.4,0.4)">
		<g transform="">
			<rect x="-956.1" y="-1994" width="22" height="22"/>
		</g>
	</g>
	<g transform="translate(480,920) scale(0.4,0.4)">
		<g transform="">
			<rect x="-1034.1" y="-1994" width="22" height="22"/>
		</g>
	</g>
	<g transform="translate(520,920) scale(0.4,0.4)">
		<g transform="">
			<rect x="-1112.1" y="-1994" width="22" height="22"/>
		</g>
	</g>
	<g transform="translate(720,920) scale(0.4,0.4)">
		<g transform="">
			<rect x="-1502.1" y="-1994" width="22" height="22"/>
		</g>
	</g>
	<g transform="translate(760,920) scale(0.4,0.4)">
		<g transform="">
			<rect x="-1580.1" y="-1994" width="22" height="22"/>
		</g>
	</g>
	<g transform="translate(800,920) scale(0.4,0.4)">
		<g transform="">
			<rect x="-1658.1" y="-1994" width="22" height="22"/>
		</g>
	</g>
	<g transform="translate(880,920) scale(0.4,0.4)">
		<g transform="">
			<rect x="-1814.1" y="-1994" width="22" height="22"/>
		</g>
	</g>
	<g transform="translate(920,920) scale(0.4,0.4)">
		<g transform="">
			<rect x="-1892.1" y="-1994" width="22" height="22"/>
		</g>
	</g>
	<g transform="translate(960,920) scale(0.4,0.4)">
		<g transform="">
			<rect x="-1970.1" y="-1994" width="22" height="22"/>
		</g>
	</g>
	<g transform="translate(320,960) scale(0.4,0.4)">
		<g transform="">
			<rect x="-722.1" y="-2072" width="22" height="22"/>
		</g>
	</g>
	<g transform="translate(360,960) scale(0.4,0.4)">
		<g transform="">
			<rect x="-800.1" y="-2072" width="22" height="22"/>
		</g>
	</g>
	<g transform="translate(440,960) scale(0.4,0.4)">
		<g transform="">
			<rect x="-956.1" y="-2072" width="22" height="22"/>
		</g>
	</g>
	<g transform="translate(480,960) scale(0.4,0.4)">
		<g transform="">
			<rect x="-1034.1" y="-2072" width="22" height="22"/>
		</g>
	</g>
	<g transform="translate(520,960) scale(0.4,0.4)">
		<g transform="">
			<rect x="-1112.1" y="-2072" width="22" height="22"/>
		</g>
	</g>
	<g transform="translate(640,960) scale(0.4,0.4)">
		<g transform="">
			<rect x="-1346.1" y="-2072" width="22" height="22"/>
		</g>
	</g>
	<g transform="translate(680,960) scale(0.4,0.4)">
		<g transform="">
			<rect x="-1424.1" y="-2072" width="22" height="22"/>
		</g>
	</g>
	<g transform="translate(840,960) scale(0.4,0.4)">
		<g transform="">
			<rect x="-1736.1" y="-2072" width="22" height="22"/>
		</g>
	</g>
	<g transform="translate(960,960) scale(0.4,0.4)">
		<g transform="">
			<rect x="-1970.1" y="-2072" width="22" height="22"/>
		</g>
	</g>
	<g transform="translate(0,0) scale(2.8, 2.8)">
		<g transform="">
			<g>
				<rect x="-10.7" y="-25.3" class="st0" width="15.4" height="15.4"/>
				<path d="M4.7-28.6h-15.4H-14v3.3v15.4v3.3h3.3H4.7H8v-3.3v-15.4v-3.3H4.7z M4.7-9.9h-15.4v-15.4H4.7V-9.9z"/>
			</g>
		</g>
	</g>
	<g transform="translate(720,0) scale(2.8, 2.8)">
		<g transform="">
			<g>
				<rect x="-211.3" y="-25.3" class="st0" width="15.4" height="15.4"/>
				<path d="M-195.9-28.6h-15.4h-3.3v3.3v15.4v3.3h3.3h15.4h3.3v-3.3v-15.4v-3.3H-195.9z M-195.9-9.9h-15.4v-15.4h15.4V-9.9z"/>
			</g>
		</g>
	</g>
	<g transform="translate(0,720) scale(2.8, 2.8)">
		<g transform="">
			<g>
				<rect x="-10.7" y="-225.8" class="st0" width="15.4" height="15.4"/>
				<path d="M4.7-229.1h-15.4H-14v3.3v15.4v3.3h3.3H4.7H8v-3.3v-15.4v-3.3H4.7z M4.7-210.4h-15.4v-15.4H4.7V-210.4z"/>
			</g>
		</g>
	</g>
	<g transform="translate(80,80) scale(1.2, 1.2)">
		<g transform="">
			<rect x="-84.7" y="-118.7" width="22" height="22"/>
		</g>
	</g>
	<g transform="translate(800,80) scale(1.2, 1.2)">
		<g transform="">
			<rect x="-552.7" y="-118.7" width="22" height="22"/>
		</g>
	</g>
	<g transform="translate(80,800) scale(1.2, 1.2)">
		<g transform="">
			<rect x="-84.7" y="-586.7" width="22" height="22"/>
		</g>
	</g>
</g>
<g class="st1">
	<path d="M4.8,267.2l1.4-9.3H1.9v-4.8h5l0.8-5.8H3.4v-4.8h5.1l1.3-9h4.6l-1.3,9h4.7l1.4-9h4.6l-1.4,9h4.2v4.8h-4.9l-0.8,5.8h4.3v4.8
		h-5.1l-1.3,9.3h-4.7l1.3-9.3h-4.7l-1.3,9.3H4.8z M16.3,253.1l0.8-5.8h-4.7l-0.8,5.8H16.3z"/>
	<path d="M31.8,249.9c0-3.2-0.1-5.9-0.2-8.1h6.7l0.4,3.4h0.2c1.1-1.6,3.3-4,7.7-4c3.3,0,5.9,1.7,7,4.3h0.1c0.9-1.3,2.1-2.3,3.3-3.1
		c1.4-0.8,3-1.2,4.8-1.2c4.9,0,8.6,3.4,8.6,11v15h-7.7v-13.8c0-3.7-1.2-5.8-3.7-5.8c-1.8,0-3.1,1.2-3.6,2.8c-0.2,0.6-0.3,1.4-0.3,2
		v14.9h-7.7V253c0-3.2-1.1-5.4-3.6-5.4c-2,0-3.2,1.6-3.7,2.9c-0.3,0.6-0.3,1.4-0.3,2v14.8h-7.7V249.9z"/>
	<path d="M101.6,254.2c0,9.3-6.6,13.6-13.4,13.6c-7.4,0-13.2-4.9-13.2-13.1c0-8.2,5.4-13.5,13.6-13.5
		C96.4,241.2,101.6,246.6,101.6,254.2z M83.2,254.5c0,4.4,1.8,7.6,5.2,7.6c3.1,0,5-3.1,5-7.6c0-3.8-1.5-7.6-5-7.6
		C84.6,246.8,83.2,250.7,83.2,254.5z"/>
	<path d="M112,241.8l3.8,12.5c0.4,1.5,0.9,3.4,1.2,4.7h0.2c0.4-1.4,0.8-3.3,1.1-4.7l3.1-12.5h8.5l-5.9,16.7
		c-3.6,10.1-6.1,14.1-8.9,16.7c-2.8,2.4-5.7,3.2-7.6,3.5l-1.7-6.7c1-0.2,2.2-0.6,3.4-1.4c1.2-0.6,2.5-1.9,3.3-3.2
		c0.3-0.4,0.4-0.8,0.4-1.1c0-0.3-0.1-0.7-0.4-1.3l-9.3-23.2H112z"/>
	<path d="M157.1,230.3v29.3c0,2.9,0.1,5.9,0.2,7.6h-7l-0.4-3.7h-0.1c-1.6,2.9-4.7,4.3-8,4.3c-6,0-10.9-5.1-10.9-13.1
		c-0.1-8.6,5.3-13.5,11.4-13.5c3.1,0,5.6,1.1,6.7,2.9h0.1v-13.8H157.1z M149.2,252.5c0-0.4-0.1-1-0.1-1.4c-0.5-2.1-2.2-3.9-4.6-3.9
		c-3.6,0-5.5,3.2-5.5,7.2c0,4.3,2.1,7,5.4,7c2.3,0,4.1-1.6,4.6-3.8c0.2-0.6,0.2-1.1,0.2-1.8V252.5z"/>
	<path d="M169.3,241.8l3.4,11.8c0.6,2.1,1.1,4.2,1.5,6.2h0.2c0.4-2.1,0.8-4,1.4-6.2l3.3-11.8h8.3l-9.5,25.4H170l-9.3-25.4H169.3z"/>
	<path d="M214.6,241.8c-0.1,1.6-0.2,3.7-0.2,7.5v14.2c0,4.9-1,8.9-3.8,11.4c-2.8,2.4-6.6,3.1-10.3,3.1c-3.3,0-6.9-0.7-9.2-2l1.6-6
		c1.6,0.9,4.4,1.9,7.4,1.9c3.7,0,6.6-2,6.6-6.7v-1.7h-0.1c-1.5,2.1-4,3.3-6.9,3.3c-6.3,0-10.8-5.1-10.8-12.4
		c0-8.2,5.3-13.4,11.5-13.4c3.5,0,5.7,1.5,7,3.6h0.1l0.3-3H214.6z M206.4,252.1c0-0.5-0.1-1-0.2-1.5c-0.6-2.1-2.1-3.5-4.3-3.5
		c-2.9,0-5.2,2.6-5.2,7.2c0,3.8,1.9,6.8,5.2,6.8c2,0,3.6-1.4,4.2-3.2c0.2-0.6,0.3-1.4,0.3-2.1V252.1z"/>
	<path d="M244.7,259c0,3.3,0.1,6,0.2,8.2H238l-0.4-3.6h-0.2c-1,1.6-3.4,4.2-8,4.2c-5.1,0-8.9-3.2-8.9-11.1v-14.9h8v13.7
		c0,3.7,1.2,5.9,4,5.9c2.2,0,3.4-1.5,4-2.8c0.2-0.5,0.3-1.1,0.3-1.7v-15.1h8V259z"/>
	<path d="M251,250.3c0-3.3-0.1-6.2-0.2-8.5h6.9l0.4,3.5h0.1c1.9-2.7,4.8-4.1,8.5-4.1c5.6,0,10.6,4.8,10.6,12.9
		c0,9.3-5.9,13.6-11.5,13.6c-3.1,0-5.5-1.2-6.6-2.9h-0.1v12.6H251V250.3z M258.9,256.3c0,0.6,0.1,1.2,0.2,1.7
		c0.5,2.1,2.3,3.7,4.6,3.7c3.4,0,5.5-2.9,5.5-7.2c0-4.1-1.8-7.1-5.4-7.1c-2.2,0-4.2,1.7-4.7,4c-0.1,0.4-0.2,0.9-0.2,1.4V256.3z"/>
	<path d="M282,260.3c1.5,0.9,4.5,1.9,6.8,1.9c2.4,0,3.4-0.8,3.4-2.1s-0.8-1.9-3.7-2.9c-5.3-1.8-7.3-4.6-7.2-7.6
		c0-4.7,4.1-8.3,10.3-8.3c3,0,5.6,0.7,7.2,1.5l-1.4,5.5c-1.1-0.6-3.3-1.5-5.5-1.5c-1.9,0-3,0.8-3,2.1c0,1.2,1,1.8,4.1,2.9
		c4.8,1.7,6.9,4.1,6.9,7.9c0,4.7-3.7,8.2-11,8.2c-3.3,0-6.3-0.7-8.2-1.8L282,260.3z"/>
</g>
</svg>
